<?xml version="1.0" standalone="no"?>
<!DOCTYPE svg PUBLIC "-//W3C//DTD SVG 20010904//EN"
"http://www.w3.org/TR/2001/REC-SVG-20010904/DTD/svg10.dtd">
<svg version="1.0" xmlns="http://www.w3.org/2000/svg"
width="700.000000pt" height="700.000000pt" viewBox="0 0 700.000000 700.000000"
preserveAspectRatio="xMidYMid meet">
<metadata>
Created by potrace 1.14, written by Peter Selinger 2001-2017
</metadata>
<g transform="translate(0.000000,700.000000) scale(0.100000,-0.100000)"
fill="#000000" stroke="none">
<path d="M2930 6974 c-781 -142 -1414 -479 -1965 -1045 -498 -511 -814 -1149
-941 -1897 -23 -135 -24 -167 -24 -532 0 -368 1 -396 25 -537 66 -388 186
-747 366 -1093 236 -453 647 -919 1087 -1233 380 -271 866 -477 1358 -576 257
-51 280 -53 709 -49 381 4 407 6 540 31 534 100 1015 300 1425 593 349 249
681 588 910 929 270 405 454 877 545 1403 24 136 25 163 25 540 0 352 -2 411
-20 522 -53 320 -156 656 -295 961 -145 317 -400 680 -685 972 -507 522 -1096
835 -1880 999 l-155 32 -445 2 c-434 3 -448 2 -580 -22z m930 -279 c745 -90
1371 -393 1896 -919 209 -210 346 -376 448 -544 268 -439 432 -912 486 -1397
14 -130 14 -470 0 -610 -39 -386 -160 -824 -310 -1120 -213 -421 -522 -813
-854 -1084 -451 -368 -1002 -602 -1641 -696 -387 -57 -923 -9 -1354 122 -360
109 -731 308 -1046 559 -135 108 -417 389 -507 504 -280 362 -509 842 -609
1280 -60 263 -73 388 -73 700 0 319 10 425 69 717 52 254 104 406 231 671 385
808 990 1347 1871 1671 148 54 521 140 713 165 78 10 551 -3 680 -19z"/>
<path d="M2610 5505 l0 -75 35 0 35 0 0 -57 c0 -32 -3 -68 -6 -80 l-6 -23
-292 -1 c-160 -1 -338 -4 -396 -8 l-104 -6 -317 -745 c-174 -410 -443 -1037
-597 -1395 -213 -497 -276 -652 -266 -658 7 -4 79 -9 159 -10 l146 -2 116 275
c205 489 496 1175 683 1605 100 231 190 438 199 459 l17 39 158 -294 c223
-412 729 -1341 949 -1739 l185 -335 49 -8 c45 -7 215 -1 258 9 15 4 126 220
465 909 244 498 448 901 452 897 6 -6 253 -629 414 -1044 38 -98 72 -178 75
-178 3 0 19 28 35 62 39 82 365 699 384 728 16 22 17 20 64 -86 119 -268 328
-752 433 -1004 64 -151 120 -278 125 -281 35 -22 238 -18 238 4 0 16 -488
1164 -675 1588 l-46 106 -332 7 c-183 3 -369 9 -414 13 l-82 6 -57 131 c-32
72 -62 137 -67 144 -14 18 -1190 18 -1205 -1 -6 -7 -35 -66 -65 -132 l-54
-120 -46 -9 c-26 -5 -49 -7 -52 -4 -7 7 59 174 119 303 l45 95 273 1 c150 1
305 4 345 8 l72 6 -95 180 c-186 351 -257 473 -278 479 -12 3 -92 6 -178 6
l-158 0 0 70 0 70 35 0 35 0 0 85 0 85 -405 0 -405 0 0 -75z"/>
<path d="M1720 3165 l0 -215 375 0 375 0 0 215 0 215 -375 0 -375 0 0 -215z"/>
</g>
</svg>
