<svg width="41" height="24" viewBox="0 0 41 24" fill="none" xmlns="http://www.w3.org/2000/svg">
<mask id="mask0_7795_1838" style="mask-type:luminance" maskUnits="userSpaceOnUse" x="0" y="0" width="41" height="24">
<path d="M40.107 0.185879L0.107422 0L0.000541309 22.9998L40.0001 23.1856L40.107 0.185879Z" fill="white"/>
</mask>
<g mask="url(#mask0_7795_1838)">
<path d="M27.0254 3.78186C26.8942 3.70425 26.7377 3.64242 26.5648 3.59981C26.3919 3.55721 26.2062 3.53485 26.0186 3.53398C25.8309 3.5331 25.645 3.55374 25.4717 3.59473C25.2985 3.63573 25.1413 3.6961 25.0095 3.77249C24.747 3.92427 24.5993 4.12969 24.5983 4.34438C24.5973 4.55898 24.7431 4.76576 25.0042 4.91998L35.1984 10.8448L1.46873 10.6881C1.283 10.6867 1.0989 10.7066 0.927064 10.7465C0.755225 10.7863 0.598947 10.8454 0.467293 10.9203C0.335813 10.9952 0.231399 11.0844 0.160506 11.1829C0.0894391 11.2813 0.0531208 11.387 0.0536684 11.4937C0.0515675 11.9458 0.674881 12.3198 1.46113 12.3235L35.1908 12.4802L24.942 18.2991C24.3956 18.6209 24.3931 19.1431 24.9366 19.4582C25.0677 19.5358 25.2243 19.5977 25.3972 19.6403C25.57 19.6829 25.7557 19.7052 25.9434 19.7061C26.1311 19.707 26.317 19.6863 26.4902 19.6454C26.6635 19.6044 26.8206 19.544 26.9525 19.4676L39.6276 12.2576C39.7617 12.1837 39.8685 12.0951 39.9416 11.9969C40.0148 11.8986 40.0527 11.7929 40.0532 11.6858C40.0537 11.5788 40.0167 11.4726 39.9445 11.3738C39.8723 11.2748 39.7664 11.1852 39.6329 11.1101L27.0254 3.78186Z" fill="#69B811"/>
</g>
</svg>
