<svg width="1717" height="447" viewBox="0 0 1717 447" fill="none" xmlns="http://www.w3.org/2000/svg">
<mask id="mask0_7795_1848" style="mask-type:alpha" maskUnits="userSpaceOnUse" x="0" y="0" width="1717" height="447">
<path d="M1681.23 0H35.7708C16.0152 0 0 11.0568 0 24.6961V422.304C0 435.943 16.0152 447 35.7708 447H1681.23C1700.98 447 1717 435.943 1717 422.304V24.6961C1717 11.0568 1700.98 0 1681.23 0Z" fill="#F9F9F9"/>
</mask>
<g mask="url(#mask0_7795_1848)">
<path opacity="0.5" d="M1230.33 436.863C1283.89 329.266 1387.71 144.151 1374.54 264.459C1358.07 414.845 1335.47 564.403 1431.18 357.502C1526.9 150.6 1597.7 -107.63 1567.65 95.5091C1537.58 298.647 1623.95 343.013 1670.89 248.15C1717.84 153.288 1778.49 64.0194 1723.75 -23" stroke="#D8EABB" stroke-width="41.6667"/>
</g>
</svg>
