<svg width="1440" height="490" viewBox="0 0 1440 490" fill="none" xmlns="http://www.w3.org/2000/svg">
<mask id="mask0_7693_825" style="mask-type:alpha" maskUnits="userSpaceOnUse" x="0" y="0" width="1440" height="490">
<path d="M1410 0H30C13.4315 0 0 12.1101 0 27.0487V462.533C0 477.472 13.4315 489.582 30 489.582H1410C1426.57 489.582 1440 477.472 1440 462.533V27.0487C1440 12.1101 1426.57 0 1410 0Z" fill="#F9F9F9"/>
</mask>
<g mask="url(#mask0_7693_825)">
<path opacity="0.5" d="M1094.79 547.567C1139.7 425.548 1226.75 215.619 1215.71 352.054C1201.9 522.598 1182.94 692.204 1263.19 457.569C1343.45 222.933 1402.81 -69.9122 1377.61 160.457C1352.4 390.824 1424.82 441.137 1464.18 333.559C1503.54 225.981 1554.4 124.746 1508.5 26.0618" stroke="#D8EABB" stroke-width="41.6667"/>
</g>
</svg>
