<svg width="25" height="27" viewBox="0 0 25 27" fill="none" xmlns="http://www.w3.org/2000/svg">
<mask id="mask0_7733_1477" style="mask-type:luminance" maskUnits="userSpaceOnUse" x="0" y="0" width="25" height="27">
<path d="M24.3548 0H0V27H24.3548V0Z" fill="white"/>
</mask>
<g mask="url(#mask0_7733_1477)">
<path d="M19.2479 16.7255C18.7493 16.15 18.1479 15.8423 17.5105 15.8423C16.8782 15.8423 16.2716 16.1443 15.7525 16.7198L14.1282 18.5149C13.9946 18.4351 13.8608 18.361 13.7323 18.2869C13.5473 18.1843 13.3725 18.0875 13.2235 17.9849C11.702 16.9136 10.3192 15.5174 8.99304 13.711C8.35048 12.8106 7.91874 12.0527 7.60518 11.2834C8.02668 10.8561 8.41738 10.4116 8.79772 9.98415C8.94165 9.82458 9.08559 9.65934 9.22953 9.49977C10.3089 8.30309 10.3089 6.7531 9.22953 5.5564L7.82622 4.00071C7.66687 3.82405 7.50238 3.6417 7.34817 3.45934C7.03976 3.10603 6.71592 2.74133 6.38181 2.39942C5.8832 1.85235 5.28693 1.56173 4.65982 1.56173C4.03271 1.56173 3.42616 1.85235 2.91214 2.39942L2.90185 2.41081L1.15416 4.3654C0.496212 5.09482 0.120974 5.98379 0.0387294 7.01523C-0.0846364 8.67924 0.357425 10.2292 0.696682 11.2435C1.52941 13.7338 2.77335 16.0417 4.62898 18.5149C6.88041 21.4952 9.58933 23.8487 12.6838 25.507C13.866 26.1281 15.4441 26.8632 17.2072 26.9886C17.3151 26.9943 17.4282 27 17.531 27C18.7184 27 19.7157 26.5271 20.497 25.5867C20.5021 25.5754 20.5124 25.5696 20.5175 25.5583C20.7848 25.1993 21.0932 24.8745 21.417 24.5268C21.6381 24.2932 21.8643 24.0482 22.0853 23.7917C22.5942 23.2048 22.8615 22.521 22.8615 21.82C22.8615 21.1134 22.5891 20.4353 22.0699 19.8654L19.2479 16.7255ZM21.0881 22.7261C21.0829 22.7317 21.0829 22.7261 21.0881 22.7261C20.8876 22.9654 20.682 23.1819 20.4609 23.4213C20.1269 23.7746 19.7876 24.145 19.4689 24.561C18.9497 25.1764 18.3381 25.4671 17.5362 25.4671C17.459 25.4671 17.3768 25.4671 17.2997 25.4614C15.773 25.3531 14.3544 24.692 13.2903 24.1279C10.3809 22.5665 7.82622 20.3498 5.70329 17.5405C3.95046 15.1983 2.77848 13.0329 2.0023 10.7078C1.52427 9.2889 1.3495 8.18343 1.4266 7.1406C1.478 6.47387 1.70932 5.92111 2.13596 5.44813L3.88878 3.50493C4.14065 3.2428 4.40794 3.10034 4.6701 3.10034C4.99394 3.10034 5.25609 3.31688 5.42058 3.49924L5.436 3.51633C5.74956 3.84115 6.04769 4.17736 6.36124 4.53637C6.52059 4.71872 6.68508 4.90107 6.84957 5.08912L8.25282 6.64483C8.79772 7.24887 8.79772 7.80732 8.25282 8.41137C8.10379 8.57664 7.95986 8.74188 7.81079 8.90145C7.37902 9.3915 6.96779 9.84744 6.52059 10.2919C6.51031 10.3033 6.50003 10.309 6.49489 10.3204C6.05283 10.8104 6.13508 11.2891 6.2276 11.614L6.24302 11.6653C6.60797 12.6454 7.122 13.5686 7.90332 14.6684L7.90846 14.6741C9.32719 16.6116 10.823 18.1217 12.473 19.2784C12.6838 19.4267 12.8996 19.5463 13.1053 19.6603C13.2903 19.7628 13.4651 19.8598 13.6141 19.9623C13.6347 19.9737 13.6553 19.9908 13.6758 20.0022C13.8506 20.0991 14.0151 20.1446 14.1847 20.1446C14.6114 20.1446 14.8786 19.8483 14.9661 19.7515L16.724 17.8025C16.8988 17.6088 17.1764 17.3751 17.5002 17.3751C17.8189 17.3751 18.0811 17.5974 18.2403 17.7912L18.2506 17.8025L21.0829 20.9425C21.6124 21.5237 21.6124 22.122 21.0881 22.7261ZM13.1618 6.42258C14.5085 6.67332 15.7319 7.37994 16.7086 8.46266C17.6852 9.5454 18.3175 10.9016 18.5488 12.3946C18.6053 12.7707 18.8983 13.0329 19.2325 13.0329C19.2735 13.0329 19.3095 13.0271 19.3507 13.0215C19.731 12.9531 19.9829 12.5542 19.9212 12.1325C19.6437 10.3261 18.8727 8.67924 17.6955 7.37423C16.5184 6.06927 15.0329 5.21449 13.4034 4.90677C13.023 4.83839 12.6684 5.11762 12.6015 5.5336C12.5347 5.9496 12.7814 6.3542 13.1618 6.42258ZM24.3264 11.9102C23.869 8.93565 22.6045 6.22883 20.6614 4.07479C18.7184 1.92074 16.2768 0.518895 13.5936 0.0117286C13.2184 -0.0623531 12.8637 0.222574 12.7969 0.638568C12.7352 1.06026 12.987 1.45345 13.3674 1.52754C15.7628 1.97772 17.9473 3.2371 19.6848 5.1575C21.4222 7.08361 22.5531 9.50553 22.9592 12.161C23.0157 12.5371 23.3087 12.7993 23.6428 12.7993C23.6839 12.7993 23.7198 12.7935 23.761 12.7878C24.1362 12.7252 24.3933 12.3262 24.3264 11.9102Z" fill="url(#paint0_linear_7733_1477)"/>
</g>
<defs>
<linearGradient id="paint0_linear_7733_1477" x1="16.9226" y1="48.5" x2="16.9226" y2="-16.25" gradientUnits="userSpaceOnUse">
<stop stop-color="#69B811"/>
<stop offset="1" stop-color="#4BDD48"/>
</linearGradient>
</defs>
</svg>
