<svg width="25" height="30" viewBox="0 0 25 30" fill="none" xmlns="http://www.w3.org/2000/svg">
<mask id="mask0_7795_1768" style="mask-type:luminance" maskUnits="userSpaceOnUse" x="0" y="0" width="25" height="30">
<path d="M25 0H0V29.3049H25V0Z" fill="white"/>
</mask>
<g mask="url(#mask0_7795_1768)">
<path d="M19.7573 18.1533C19.2455 17.5286 18.6281 17.1947 17.9739 17.1947C17.3248 17.1947 16.7022 17.5225 16.1693 18.1472L14.502 20.0955C14.3648 20.0088 14.2276 19.9284 14.0956 19.848C13.9057 19.7367 13.7263 19.6316 13.5733 19.5202C12.0115 18.3575 10.5921 16.8421 9.2308 14.8815C8.57122 13.9042 8.12805 13.0816 7.80618 12.2466C8.23885 11.7828 8.63989 11.3004 9.0303 10.8365C9.17805 10.6633 9.3258 10.4839 9.47355 10.3107C10.5816 9.01191 10.5816 7.32959 9.47355 6.03074L8.03307 4.34224C7.8695 4.15049 7.70065 3.95258 7.54236 3.75465C7.22578 3.37119 6.89336 2.97535 6.5504 2.60425C6.03858 2.01048 5.42651 1.69505 4.7828 1.69505C4.13907 1.69505 3.51645 2.01048 2.98881 2.60425L2.97825 2.61662L1.18427 4.73807C0.508891 5.52975 0.123713 6.49461 0.0392897 7.6141C-0.087344 9.42016 0.366428 11.1025 0.714672 12.2033C1.56945 14.9062 2.84635 17.4111 4.75114 20.0955C7.0622 23.3302 9.84289 25.8846 13.0193 27.6845C14.2329 28.3586 15.8527 29.1564 17.6626 29.2925C17.7733 29.2988 17.8894 29.3049 17.995 29.3049C19.2138 29.3049 20.2375 28.7916 21.0395 27.771C21.0447 27.7587 21.0553 27.7524 21.0606 27.7401C21.3349 27.3505 21.6515 26.9979 21.9839 26.6206C22.2108 26.367 22.443 26.1011 22.6699 25.8227C23.1922 25.1857 23.4666 24.4435 23.4666 23.6828C23.4666 22.9158 23.187 22.1798 22.6541 21.5613L19.7573 18.1533ZM21.6462 24.6661C21.641 24.6723 21.641 24.6661 21.6462 24.6661C21.4405 24.9259 21.2294 25.1609 21.0025 25.4207C20.6596 25.8042 20.3113 26.2062 19.9841 26.6577C19.4512 27.3257 18.8234 27.6412 18.0002 27.6412C17.9211 27.6412 17.8366 27.6412 17.7575 27.6349C16.1904 27.5174 14.7341 26.7999 13.6419 26.1877C10.6555 24.4929 8.03307 22.087 5.8539 19.0378C4.05465 16.4957 2.85162 14.1455 2.05488 11.6219C1.56418 10.0819 1.38478 8.88203 1.46392 7.75017C1.51669 7.02653 1.75413 6.42658 2.19207 5.91322L3.99133 3.80414C4.24987 3.51963 4.52425 3.365 4.79335 3.365C5.12576 3.365 5.39485 3.60003 5.5637 3.79796L5.57953 3.81651C5.9014 4.16905 6.20743 4.53397 6.52929 4.92363C6.69285 5.12154 6.8617 5.31946 7.03055 5.52357L8.47097 7.21208C9.0303 7.86769 9.0303 8.47381 8.47097 9.12943C8.318 9.3088 8.17025 9.48815 8.01724 9.66134C7.57402 10.1932 7.1519 10.6881 6.69285 11.1704C6.6823 11.1829 6.67175 11.189 6.66647 11.2014C6.2127 11.7333 6.29713 12.2529 6.3921 12.6054L6.40793 12.6611C6.78255 13.7249 7.3102 14.7269 8.11221 15.9206L8.11749 15.9267C9.5738 18.0297 11.1092 19.6687 12.803 20.9242C13.0193 21.0851 13.2409 21.2149 13.452 21.3387C13.6419 21.4499 13.8213 21.5551 13.9743 21.6664C13.9954 21.6788 14.0166 21.6974 14.0376 21.7098C14.2171 21.8149 14.3859 21.8643 14.56 21.8643C14.998 21.8643 15.2723 21.5427 15.3621 21.4376L17.1666 19.3223C17.346 19.112 17.6309 18.8584 17.9633 18.8584C18.2905 18.8584 18.5596 19.0997 18.7231 19.31L18.7336 19.3223L21.641 22.7303C22.1845 23.3611 22.1845 24.0105 21.6462 24.6661ZM13.51 6.97086C14.8924 7.243 16.1482 8.00994 17.1507 9.18509C18.1532 10.3603 18.8022 11.8322 19.0397 13.4527C19.0977 13.8609 19.3985 14.1455 19.7415 14.1455C19.7836 14.1455 19.8206 14.1392 19.8628 14.1331C20.2532 14.0588 20.5118 13.6259 20.4485 13.1683C20.1636 11.2076 19.3721 9.42016 18.1638 8.00375C16.9555 6.58738 15.4306 5.65964 13.758 5.32565C13.3676 5.25143 13.0035 5.55449 12.9349 6.00599C12.8663 6.4575 13.1196 6.89664 13.51 6.97086ZM24.9704 12.927C24.5008 9.69846 23.2028 6.76057 21.2083 4.42264C19.2138 2.0847 16.7075 0.563191 13.9532 0.0127299C13.5681 -0.067676 13.204 0.241575 13.1354 0.693081C13.0721 1.15077 13.3306 1.57753 13.7211 1.65794C16.1799 2.14656 18.4223 3.51344 20.2058 5.59779C21.9892 7.68832 23.1501 10.317 23.5669 13.1991C23.6249 13.6073 23.9256 13.8919 24.2686 13.8919C24.3108 13.8919 24.3477 13.8856 24.39 13.8795C24.7751 13.8115 25.039 13.3785 24.9704 12.927Z" fill="#69B811"/>
</g>
<defs>
<linearGradient id="paint0_linear_7795_1768" x1="17.3704" y1="52.6403" x2="17.3704" y2="-17.6373" gradientUnits="userSpaceOnUse">
<stop stop-color="#69B811"/>
<stop offset="1" stop-color="#4BDD48"/>
</linearGradient>
</defs>
</svg>
