<svg width="25" height="25" viewBox="0 0 25 25" fill="none" xmlns="http://www.w3.org/2000/svg">
<path d="M22.1879 2.99268C21.9443 3.00337 21.7073 3.07114 21.4935 3.15674C21.2819 3.24177 20.0638 3.76169 18.265 4.53077C16.4662 5.29985 14.1279 6.30135 11.8099 7.29444C7.17406 9.28062 2.61852 11.2349 2.61852 11.2349L2.65173 11.2222C2.65173 11.2222 2.37678 11.3141 2.09802 11.5083C1.95864 11.6054 1.80868 11.7308 1.68591 11.9136C1.56313 12.0964 1.47337 12.3554 1.5072 12.6294C1.62601 13.5918 2.62341 13.8648 2.62341 13.8648L2.62731 13.8667L7.07848 15.3901C7.19197 15.7687 8.42854 19.896 8.70055 20.77C8.85078 21.2533 8.99139 21.532 9.13805 21.7222C9.21145 21.8173 9.28836 21.891 9.37341 21.9448C9.4072 21.9662 9.44273 21.9823 9.4779 21.9966H9.47985C9.48417 21.9985 9.48824 21.9987 9.49255 22.0005L9.48083 21.9976C9.489 22.0009 9.49706 22.0064 9.50524 22.0093C9.52111 22.0148 9.53084 22.0147 9.55114 22.019C10.0609 22.197 10.4828 21.8667 10.4828 21.8667L10.5004 21.853L13.2347 19.3169L17.6722 22.7769L17.7279 22.8023C18.5046 23.1471 19.2071 22.9547 19.5961 22.6382C19.9851 22.3217 20.1381 21.9136 20.1381 21.9136L20.1547 21.8706L23.4154 4.87549C23.4988 4.49528 23.5107 4.16662 23.432 3.86964C23.3533 3.57265 23.1621 3.31449 22.9222 3.17139C22.6823 3.0283 22.4314 2.982 22.1879 2.99268ZM22.2142 4.00928C22.3131 4.0047 22.3864 4.01601 22.4095 4.02979C22.4326 4.04357 22.443 4.04176 22.4652 4.12549C22.4874 4.20923 22.4994 4.3856 22.4388 4.66163L22.4369 4.66749L19.1947 21.564C19.187 21.581 19.1195 21.7373 18.9652 21.8628C18.8078 21.9908 18.6328 22.0908 18.1683 21.896L13.3158 18.1118L13.1791 18.0044L13.1761 18.0073L11.725 16.9185L19.8802 7.32374C19.9429 7.2502 19.9829 7.16009 19.9955 7.06429C20.008 6.9685 19.9925 6.87112 19.9509 6.78393C19.9093 6.69675 19.8433 6.62349 19.7609 6.57302C19.6785 6.52254 19.5833 6.49701 19.4867 6.49952C19.3923 6.50197 19.3006 6.53109 19.222 6.5835L7.42126 14.4507L2.96325 12.9243C2.96325 12.9243 2.52057 12.678 2.49938 12.5064C2.49821 12.4968 2.49298 12.5055 2.51598 12.4712C2.53899 12.437 2.59681 12.3791 2.6693 12.3286C2.81429 12.2276 2.97985 12.1665 2.97985 12.1665L2.99645 12.1607L3.01305 12.1538C3.01305 12.1538 7.56883 10.1995 12.2045 8.21339C14.5223 7.22035 16.8602 6.21958 18.6586 5.45069C20.4565 4.682 21.7556 4.1287 21.8656 4.08448C21.9908 4.03433 22.1153 4.01386 22.2142 4.00928ZM16.806 9.396L10.6215 16.6724L10.6185 16.6753C10.6089 16.6869 10.5997 16.699 10.5912 16.7114C10.5814 16.725 10.5722 16.739 10.5638 16.7534C10.5291 16.8124 10.5068 16.8779 10.4984 16.9458C10.4984 16.9471 10.4984 16.9484 10.4984 16.9497L9.69274 20.5728C9.67935 20.5336 9.66997 20.5193 9.65563 20.4732V20.4722C9.39974 19.6499 8.23306 15.7576 8.07165 15.2192L16.806 9.396ZM11.3197 17.8648L12.431 18.6987L10.7982 20.2124L11.3197 17.8648Z" fill="#0088CC"/>
</svg>
