<svg width="25" height="25" viewBox="0 0 25 25" fill="none" xmlns="http://www.w3.org/2000/svg">
<path d="M12.4993 2.60449C11.1249 2.60449 6.94206 2.60449 4.62956 4.71595C3.25247 6.08783 2.60352 8.07012 2.60352 10.9378V12.5003C2.60352 15.368 3.25247 17.3503 4.6457 18.7378C5.33945 19.3706 6.28529 19.8764 7.44154 20.2258L7.81185 20.3373V23.1123C7.81185 23.4378 7.90612 23.4378 7.93737 23.4378C8.00143 23.4378 8.10404 23.4175 8.29883 23.2446C8.3457 23.1982 8.68945 22.8264 10.3613 20.9535L10.5301 20.7644L10.7827 20.7805C11.3426 20.8154 11.9202 20.8337 12.4993 20.8337C13.8738 20.8337 18.0566 20.8337 20.3691 18.7217C21.7457 17.3498 22.3952 15.3675 22.3952 12.5003V10.9378C22.3952 8.07012 21.7462 6.08783 20.353 4.70033C18.0566 2.60449 13.8738 2.60449 12.4993 2.60449Z" fill="white"/>
<path d="M17.4216 15.0285C16.843 14.541 16.5758 14.3936 15.7768 13.9139C15.444 13.7144 14.9367 13.542 14.6706 13.542C14.4888 13.542 14.2711 13.6811 14.1378 13.8144C13.7961 14.1561 13.6841 14.5837 13.0852 14.5837C12.4992 14.5837 11.4758 13.9873 10.7414 13.2165C9.9706 12.4821 9.37425 11.4587 9.37425 10.8727C9.37425 10.2738 9.79404 10.154 10.1357 9.81178C10.269 9.67897 10.4159 9.46126 10.4159 9.27949C10.4159 9.01335 10.2435 8.51387 10.044 8.18105C9.56435 7.38158 9.41747 7.11439 8.92945 6.53626C8.76435 6.34043 8.57633 6.25085 8.37945 6.25033C8.04664 6.2498 7.60966 6.41491 7.31383 6.63522C6.86904 6.96699 6.40393 7.41855 6.27945 7.98105C6.26279 8.05762 6.25289 8.1347 6.24977 8.21178C6.22581 8.79772 6.45602 9.39251 6.70445 9.89616C7.28935 11.0831 8.06331 12.2321 8.9055 13.2581C9.17477 13.5863 9.468 13.8915 9.77164 14.1863C10.0664 14.4894 10.3716 14.7826 10.6998 15.0524C11.7258 15.8946 12.8748 16.6686 14.0617 17.2534C14.5607 17.4993 15.1482 17.7253 15.7284 17.7087C15.8112 17.7061 15.894 17.6967 15.9768 17.6785C16.5393 17.5545 16.9909 17.0889 17.3227 16.6441C17.543 16.3482 17.7081 15.9118 17.7076 15.5785C17.7071 15.3816 17.6175 15.1936 17.4216 15.0285ZM17.7076 12.5003C17.4201 12.5003 17.1867 12.267 17.1867 11.9795V11.4587C17.1867 8.87428 15.0836 6.77116 12.4992 6.77116C12.2117 6.77116 11.9784 6.53783 11.9784 6.25033C11.9784 5.96283 12.2117 5.72949 12.4992 5.72949C15.6581 5.72949 18.2284 8.2998 18.2284 11.4587V11.9795C18.2284 12.267 17.9951 12.5003 17.7076 12.5003ZM14.5086 11.4587C14.2774 11.4587 14.0659 11.3035 14.005 11.0691C13.8623 10.5217 13.4352 10.0941 12.8899 9.95345C12.6112 9.88105 12.444 9.5972 12.5159 9.31855C12.5878 9.04043 12.8711 8.87324 13.1508 8.9446C14.0612 9.18053 14.7748 9.89355 15.0128 10.8061C15.0852 11.0847 14.9185 11.3686 14.6404 11.4415C14.5961 11.4529 14.5518 11.4587 14.5086 11.4587Z" fill="#7E57C2"/>
<path d="M16.1454 11.9792C15.8579 11.9792 15.6246 11.7459 15.6246 11.4584C15.6246 9.79798 14.3256 8.42819 12.6673 8.34069C12.3798 8.32559 12.1595 8.08027 12.1746 7.79329C12.1897 7.50579 12.4391 7.28496 12.722 7.30059C14.9339 7.41725 16.6662 9.24381 16.6662 11.4584C16.6662 11.7459 16.4329 11.9792 16.1454 11.9792Z" fill="#7E57C2"/>
<path d="M12.5009 2.08301C10.1572 2.08301 6.50508 2.29863 4.28008 4.33092C2.70716 5.89707 2.08424 8.09395 2.08424 10.9372C2.08424 11.1726 2.0832 11.4351 2.08529 11.7184C2.0832 12.0012 2.08424 12.2637 2.08424 12.4992C2.08424 15.3424 2.70716 17.5393 4.28008 19.1054C5.12695 19.8788 6.1832 20.3877 7.29258 20.7231V23.1117C7.29258 23.9429 7.83893 23.958 7.93893 23.958H7.94362C8.20091 23.957 8.42331 23.8309 8.64622 23.633C8.73008 23.5585 9.69831 22.4794 10.7514 21.2992C11.3785 21.3393 11.9743 21.3538 12.5004 21.3538C14.8441 21.3538 18.4957 21.1377 20.7212 19.1054C22.2936 17.5398 22.9171 15.3424 22.9171 12.4992C22.9171 12.2637 22.9181 12.0012 22.916 11.7179C22.9181 11.4346 22.9171 11.1726 22.9171 10.9367C22.9171 8.09342 22.2941 5.89655 20.7212 4.3304C18.4962 2.29863 14.8447 2.08301 12.5009 2.08301ZM21.3551 12.3179V12.4992C21.3551 15.0544 20.8108 16.7955 19.6436 17.9742C17.6217 19.7913 13.7702 19.7913 12.5004 19.7913C12.1139 19.7913 11.4868 19.7908 10.7467 19.7393C10.541 19.9705 8.33425 22.4387 8.33425 22.4387V19.3851C7.23841 19.1221 6.1556 18.6908 5.3582 17.9747C4.19102 16.7955 3.64674 15.0544 3.64674 12.4992V12.3179C3.64674 12.1351 3.64622 11.9377 3.64779 11.707C3.64622 11.4986 3.64622 11.3018 3.64674 11.1184V10.9372C3.64674 8.38197 4.19102 6.64082 5.3582 5.46217C7.37956 3.64499 11.2316 3.64499 12.5009 3.64499C13.7702 3.64499 17.6217 3.64499 19.6431 5.46217C20.8108 6.64082 21.3546 8.38197 21.3546 10.9372V11.1184C21.3546 11.3012 21.3551 11.4986 21.3535 11.7294C21.3551 11.9382 21.3551 12.1351 21.3551 12.3179Z" fill="#7E57C2"/>
</svg>
