<svg width="41" height="24" fill="none" xmlns="http://www.w3.org/2000/svg"><mask id="a" style="mask-type:luminance" maskUnits="userSpaceOnUse" x="0" y="0" width="41" height="24"><path d="M40.107.186.107 0 .001 23l40 .186.106-23Z" fill="#fff"/></mask><g mask="url(#a)"><path d="M27.025 3.782a1.714 1.714 0 0 0-.46-.182 2.344 2.344 0 0 0-.546-.066c-.188 0-.374.02-.547.06-.174.042-.33.102-.463.178-.262.152-.41.358-.41.572-.002.215.144.422.405.576l10.194 5.925-33.73-.157a2.333 2.333 0 0 0-.54.058c-.173.04-.33.1-.46.174a.956.956 0 0 0-.307.263.524.524 0 0 0-.107.31c-.002.453.62.827 1.407.83l33.73.157-10.249 5.82c-.546.32-.549.843-.005 1.158.13.078.287.14.46.182a2.346 2.346 0 0 0 1.093.005c.173-.04.33-.101.462-.177l12.676-7.21a.97.97 0 0 0 .314-.261.523.523 0 0 0 .111-.311.523.523 0 0 0-.108-.312.968.968 0 0 0-.312-.264L27.025 3.782Z" fill="#69B811"/></g></svg>