<svg width="1717" height="447" fill="none" xmlns="http://www.w3.org/2000/svg"><mask id="a" style="mask-type:alpha" maskUnits="userSpaceOnUse" x="0" y="0" width="1717" height="447"><path d="M1681.23 0H35.77C16.016 0 0 11.057 0 24.696v397.608C0 435.943 16.015 447 35.77 447h1645.46c19.75 0 35.77-11.057 35.77-24.696V24.696C1717 11.056 1700.98 0 1681.23 0Z" fill="#F9F9F9"/></mask><g mask="url(#a)"><path opacity=".5" d="M1230.33 436.863c53.56-107.597 157.38-292.712 144.21-172.404-16.47 150.386-39.07 299.944 56.64 93.043C1526.9 150.6 1597.7-107.63 1567.65 95.509c-30.07 203.138 56.3 247.504 103.24 152.641 46.95-94.862 107.6-184.13 52.86-271.15" stroke="#D8EABB" stroke-width="41.667"/></g></svg>