<svg width="1440" height="490" fill="none" xmlns="http://www.w3.org/2000/svg"><mask id="a" style="mask-type:alpha" maskUnits="userSpaceOnUse" x="0" y="0" width="1440" height="490"><path d="M1410 0H30C13.431 0 0 12.11 0 27.049v435.484c0 14.939 13.431 27.049 30 27.049h1380c16.57 0 30-12.11 30-27.049V27.049C1440 12.11 1426.57 0 1410 0Z" fill="#F9F9F9"/></mask><g mask="url(#a)"><path opacity=".5" d="M1094.79 547.567c44.91-122.019 131.96-331.948 120.92-195.513-13.81 170.544-32.77 340.15 47.48 105.515 80.26-234.636 139.62-527.481 114.42-297.112-25.21 230.367 47.21 280.68 86.57 173.102 39.36-107.578 90.22-208.813 44.32-307.497" stroke="#D8EABB" stroke-width="41.667"/></g></svg>