<svg width="25" height="27" fill="none" xmlns="http://www.w3.org/2000/svg"><mask id="a" style="mask-type:luminance" maskUnits="userSpaceOnUse" x="0" y="0" width="25" height="27"><path d="M24.355 0H0v27h24.355V0Z" fill="#fff"/></mask><g mask="url(#a)"><path d="M19.248 16.726c-.499-.576-1.1-.884-1.738-.884-.632 0-1.238.302-1.758.878l-1.624 1.795c-.133-.08-.267-.154-.396-.228-.185-.103-.36-.2-.508-.302-1.522-1.071-2.905-2.468-4.231-4.274-.643-.9-1.074-1.658-1.388-2.428.422-.427.812-.871 1.193-1.299.144-.16.288-.325.432-.484 1.079-1.197 1.079-2.747 0-3.944L7.826 4.001c-.16-.177-.324-.36-.478-.542a25.715 25.715 0 0 0-.966-1.06c-.499-.547-1.095-.837-1.722-.837s-1.234.29-1.748.837l-.01.012-1.748 1.954C.496 5.095.121 5.984.04 7.015c-.124 1.664.318 3.214.658 4.228.832 2.49 2.076 4.799 3.932 7.272 2.251 2.98 4.96 5.334 8.055 6.992 1.182.621 2.76 1.356 4.523 1.482.108.005.221.011.324.011 1.187 0 2.185-.473 2.966-1.413.005-.012.015-.017.02-.029.268-.359.576-.683.9-1.031.221-.234.447-.479.668-.735.51-.587.776-1.271.776-1.972 0-.707-.272-1.385-.791-1.955l-2.822-3.14Zm1.84 6c-.005.006-.005 0 0 0-.2.24-.406.456-.627.695-.334.354-.673.724-.992 1.14-.52.615-1.13.906-1.933.906-.077 0-.16 0-.236-.006-1.527-.108-2.946-.769-4.01-1.333-2.91-1.561-5.464-3.778-7.587-6.587-1.753-2.343-2.925-4.508-3.7-6.833-.479-1.42-.654-2.525-.576-3.567.051-.667.282-1.22.709-1.693l1.753-1.943c.252-.262.519-.405.781-.405.324 0 .586.217.75.4l.016.016c.314.325.612.661.925 1.02.16.183.324.365.489.553l1.403 1.556c.545.604.545 1.162 0 1.766-.15.166-.293.33-.442.49-.432.49-.843.946-1.29 1.39-.01.012-.021.018-.026.03-.442.49-.36.968-.267 1.293l.015.051c.365.98.879 1.904 1.66 3.003l.005.006c1.42 1.938 2.915 3.448 4.565 4.604.21.149.427.268.632.382.185.103.36.2.51.302.02.012.04.029.06.04.176.097.34.143.51.143.426 0 .694-.297.781-.393l1.758-1.95c.175-.193.452-.427.776-.427.319 0 .581.222.74.416l.01.011 2.833 3.14c.53.582.53 1.18.005 1.784ZM13.162 6.423c1.346.25 2.57.957 3.547 2.04.976 1.082 1.608 2.439 1.84 3.932.056.376.35.638.684.638.04 0 .076-.006.118-.011.38-.069.632-.468.57-.89-.277-1.806-1.048-3.453-2.226-4.758-1.177-1.305-2.662-2.16-4.292-2.467-.38-.069-.735.21-.802.627-.066.416.18.82.56.889Zm11.164 5.487c-.457-2.974-1.721-5.681-3.665-7.835C18.718 1.92 16.277.519 13.594.012c-.376-.074-.73.21-.797.627-.062.421.19.814.57.889 2.396.45 4.58 1.71 6.318 3.63 1.737 1.926 2.868 4.348 3.274 7.003.057.376.35.638.684.638.04 0 .077-.005.118-.011.375-.063.632-.462.565-.878Z" fill="url(#b)"/></g><defs><linearGradient id="b" x1="16.923" y1="48.5" x2="16.923" y2="-16.25" gradientUnits="userSpaceOnUse"><stop stop-color="#69B811"/><stop offset="1" stop-color="#4BDD48"/></linearGradient></defs></svg>