<svg xmlns="http://www.w3.org/2000/svg" xmlns:xlink="http://www.w3.org/1999/xlink"><symbol id="phone"><g fill="none"><mask id="a" style="mask-type:luminance" maskUnits="userSpaceOnUse" x="0" y="0" width="25" height="30"><path d="M25 0H0v29.305h25V0Z" fill="#fff"/></mask><g mask="url(#a)"><path d="M19.757 18.153c-.512-.624-1.129-.958-1.783-.958-.65 0-1.272.328-1.805.952l-1.667 1.949c-.137-.087-.274-.168-.406-.248-.19-.111-.37-.216-.523-.328-1.562-1.162-2.98-2.678-4.342-4.638-.66-.978-1.103-1.8-1.425-2.635.433-.464.834-.947 1.224-1.41.148-.174.296-.353.444-.526 1.108-1.3 1.108-2.981 0-4.28l-1.44-1.689c-.165-.192-.333-.39-.492-.587-.316-.384-.649-.78-.992-1.15-.511-.595-1.123-.91-1.767-.91-.644 0-1.267.315-1.794.91l-.01.012-1.795 2.121C.51 5.53.124 6.495.04 7.614c-.126 1.806.327 3.488.676 4.59.854 2.702 2.131 5.207 4.036 7.892 2.311 3.234 5.092 5.789 8.268 7.588 1.214.675 2.834 1.472 4.644 1.608.11.007.226.013.332.013 1.219 0 2.242-.513 3.044-1.534.006-.012.016-.019.022-.03.274-.39.59-.743.923-1.12.227-.254.459-.52.686-.798.522-.637.797-1.38.797-2.14 0-.767-.28-1.503-.813-2.122l-2.897-3.408Zm1.89 6.513c-.006.006-.006 0 0 0-.206.26-.418.495-.644.755-.343.383-.692.785-1.019 1.237-.533.668-1.16.983-1.984.983-.079 0-.163 0-.242-.006-1.568-.118-3.024-.835-4.116-1.447-2.986-1.695-5.609-4.101-7.788-7.15-1.8-2.542-3.002-4.893-3.8-7.416-.49-1.54-.67-2.74-.59-3.872.053-.723.29-1.323.728-1.837l1.8-2.109c.258-.284.532-.439.801-.439.333 0 .602.235.77.433l.017.019c.321.352.627.717.95 1.107.163.198.332.395.5.6l1.441 1.688c.56.656.56 1.262 0 1.917-.153.18-.3.36-.454.532a30.142 30.142 0 0 1-1.324 1.51c-.01.012-.021.018-.027.03-.453.532-.369 1.052-.274 1.404l.016.056c.375 1.064.902 2.066 1.704 3.26l.005.006c1.457 2.103 2.992 3.742 4.686 4.997.216.161.438.29.649.415.19.11.37.216.522.327.021.013.043.031.064.044.18.105.348.154.522.154.438 0 .712-.321.802-.426l1.805-2.116c.179-.21.464-.464.796-.464.328 0 .597.242.76.452l.01.012 2.908 3.408c.544.631.544 1.28.005 1.936ZM13.51 6.971c1.382.272 2.638 1.039 3.64 2.214 1.003 1.175 1.652 2.647 1.89 4.268.058.408.358.693.701.693.043 0 .08-.007.122-.013.39-.074.649-.507.585-.965-.284-1.96-1.076-3.748-2.284-5.164-1.209-1.417-2.733-2.344-4.406-2.678-.39-.075-.754.228-.823.68-.069.451.185.89.575.965Zm11.46 5.956c-.47-3.229-1.767-6.166-3.762-8.504-1.994-2.338-4.5-3.86-7.255-4.41-.385-.08-.749.229-.818.68-.063.458.196.885.586.965 2.459.489 4.701 1.855 6.485 3.94 1.783 2.09 2.944 4.719 3.36 7.601.059.408.36.693.703.693.042 0 .079-.006.121-.012.385-.069.649-.502.58-.953Z" fill="#69B811"/></g></g></symbol><symbol id="telegram"><g fill="none"><path d="M22.188 2.993c-.244.01-.48.078-.694.164-.212.085-1.43.605-3.229 1.374L11.81 7.294l-9.191 3.94.033-.012s-.275.092-.554.286c-.14.097-.29.223-.412.406a1.073 1.073 0 0 0-.179.715c.119.963 1.116 1.236 1.116 1.236l.004.002 4.451 1.523c.114.379 1.35 4.506 1.623 5.38.15.483.29.762.437.952.073.095.15.169.235.223.034.021.07.037.105.052h.002c.004.002.008.002.013.003l-.012-.002.024.011c.016.006.026.006.046.01.51.178.932-.152.932-.152l.017-.014 2.735-2.536 4.437 3.46.056.025c.777.345 1.48.153 1.868-.164.39-.316.542-.724.542-.724l.017-.043 3.26-16.996c.084-.38.096-.708.017-1.005a1.168 1.168 0 0 0-.51-.699c-.24-.143-.49-.189-.734-.178Zm.026 1.016a.458.458 0 0 1 .196.02c.023.015.033.013.055.096.022.084.034.26-.026.537l-.002.005-3.242 16.897c-.008.017-.076.173-.23.299-.157.128-.332.228-.797.033l-4.852-3.784-.137-.108-.003.003-1.451-1.088 8.155-9.595a.5.5 0 0 0-.658-.74l-11.8 7.867-4.459-1.527s-.442-.246-.464-.418c0-.01-.006 0 .017-.035a.657.657 0 0 1 .153-.142c.145-.101.31-.163.31-.163l.017-.005.017-.007 9.191-3.94C14.522 7.22 16.86 6.22 18.66 5.45a686.726 686.726 0 0 1 3.207-1.367c.125-.05.25-.07.348-.075Zm-5.408 5.387-6.185 7.276-.003.003a.502.502 0 0 0-.054.078.501.501 0 0 0-.066.193v.004l-.805 3.623c-.014-.04-.023-.054-.037-.1-.256-.823-1.423-4.715-1.584-5.254l8.734-5.823Zm-5.486 8.469 1.111.834-1.633 1.513.522-2.347Z" fill="#08C"/></g></symbol><symbol id="viber"><g fill="none"><path d="M12.5 2.604c-1.375 0-5.558 0-7.87 2.112-1.378 1.372-2.026 3.354-2.026 6.222V12.5c0 2.868.648 4.85 2.042 6.238.693.633 1.64 1.138 2.796 1.488l.37.111v2.775c0 .326.094.326.125.326.064 0 .167-.02.362-.193.047-.047.39-.419 2.062-2.292l.17-.189.252.017c.56.034 1.137.053 1.716.053 1.375 0 5.558 0 7.87-2.112 1.377-1.372 2.026-3.355 2.026-6.222v-1.562c0-2.868-.649-4.85-2.042-6.238-2.296-2.096-6.48-2.096-7.854-2.096Z" fill="#fff"/><path d="M17.422 15.028c-.579-.487-.846-.634-1.645-1.114-.333-.2-.84-.372-1.106-.372-.182 0-.4.14-.533.272-.342.342-.454.77-1.053.77-.586 0-1.61-.597-2.344-1.367-.77-.735-1.367-1.758-1.367-2.344 0-.6.42-.719.762-1.061.133-.133.28-.35.28-.533 0-.266-.173-.765-.372-1.098-.48-.8-.627-1.067-1.115-1.645-.165-.196-.353-.285-.55-.286-.332 0-.77.165-1.065.385-.445.332-.91.784-1.035 1.346a1.34 1.34 0 0 0-.03.23c-.023.587.207 1.182.455 1.685.585 1.187 1.36 2.336 2.202 3.362.269.328.562.634.866.928.294.303.6.597.928.866 1.026.843 2.175 1.617 3.362 2.201.499.246 1.086.472 1.666.456a1.35 1.35 0 0 0 .249-.03c.562-.124 1.014-.59 1.346-1.035.22-.296.385-.732.385-1.065 0-.197-.09-.385-.286-.55Zm.286-2.528a.521.521 0 0 1-.521-.52v-.521a4.693 4.693 0 0 0-4.688-4.688.521.521 0 0 1 0-1.042c3.16 0 5.73 2.57 5.73 5.73v.52c0 .288-.234.521-.521.521Zm-3.2-1.041a.52.52 0 0 1-.503-.39 1.557 1.557 0 0 0-1.115-1.116.521.521 0 0 1 .26-1.008c.911.236 1.625.949 1.863 1.861a.521.521 0 0 1-.504.653Z" fill="#7E57C2"/><path d="M16.145 11.98a.521.521 0 0 1-.52-.522c0-1.66-1.3-3.03-2.958-3.117a.52.52 0 1 1 .055-1.04 4.163 4.163 0 0 1 3.944 4.157c0 .288-.233.521-.52.521Z" fill="#7E57C2"/><path d="M12.5 2.083c-2.343 0-5.995.216-8.22 2.248-1.573 1.566-2.196 3.763-2.196 6.606l.001.781c-.002.283 0 .546 0 .781 0 2.843.622 5.04 2.195 6.606.847.774 1.903 1.283 3.013 1.618v2.389c0 .83.546.846.646.846h.005c.257-.001.48-.127.702-.325.084-.075 1.052-1.154 2.105-2.334.628.04 1.223.055 1.75.055 2.343 0 5.995-.216 8.22-2.249 1.573-1.565 2.196-3.763 2.196-6.606 0-.235.001-.498-.001-.781.002-.283.001-.545.001-.781 0-2.844-.623-5.04-2.196-6.607-2.225-2.031-5.876-2.247-8.22-2.247Zm8.855 10.235v.181c0 2.555-.544 4.296-1.711 5.475-2.022 1.817-5.874 1.817-7.144 1.817-.386 0-1.013 0-1.753-.052l-2.413 2.7v-3.054c-1.096-.263-2.178-.694-2.976-1.41-1.167-1.18-1.711-2.92-1.711-5.476v-.792a56.403 56.403 0 0 1 0-.589v-.18c0-2.556.544-4.297 1.711-5.476 2.022-1.817 5.874-1.817 7.143-1.817 1.27 0 5.12 0 7.142 1.817 1.168 1.179 1.712 2.92 1.712 5.475v.181c0 .183 0 .38-.002.611.002.21.002.406.002.589Z" fill="#7E57C2"/></g></symbol></svg>